{
  "asset": {
    "version": "2.0",
    "generator": "Manual"
  },
  "scene": 0,
  "scenes": [{ "nodes": [0, 1] }],
  "nodes": [
    {
      "mesh": 0,
      "name": "Trunk"
    },
    {
      "mesh": 1,
      "name": "Leaves"
    }
  ],
  "meshes": [
    {
      "primitives": [{
        "attributes": {
          "POSITION": 0,
          "NORMAL": 1
        },
        "indices": 2,
        "material": 0
      }]
    },
    {
      "primitives": [{
        "attributes": {
          "POSITION": 3,
          "NORMAL": 4
        },
        "indices": 5,
        "material": 1
      }]
    }
  ],
  "accessors": [
    {
      "bufferView": 0,
      "componentType": 5126,
      "count": 24,
      "type": "VEC3",
      "max": [0.5, 3.0, 0.5],
      "min": [-0.5, 0.0, -0.5]
    },
    {
      "bufferView": 1,
      "componentType": 5126,
      "count": 24,
      "type": "VEC3"
    },
    {
      "bufferView": 2,
      "componentType": 5123,
      "count": 36,
      "type": "SCALAR"
    },
    {
      "bufferView": 3,
      "componentType": 5126,
      "count": 24,
      "type": "VEC3",
      "max": [1.5, 4.5, 1.5],
      "min": [-1.5, 3.0, -1.5]
    },
    {
      "bufferView": 4,
      "componentType": 5126,
      "count": 24,
      "type": "VEC3"
    },
    {
      "bufferView": 5,
      "componentType": 5123,
      "count": 36,
      "type": "SCALAR"
    }
  ],
  "bufferViews": [
    {
      "buffer": 0,
      "byteLength": 288,
      "byteOffset": 0
    },
    {
      "buffer": 0,
      "byteLength": 288,
      "byteOffset": 288
    },
    {
      "buffer": 0,
      "byteLength": 72,
      "byteOffset": 576
    },
    {
      "buffer": 0,
      "byteLength": 288,
      "byteOffset": 648
    },
    {
      "buffer": 0,
      "byteLength": 288,
      "byteOffset": 936
    },
    {
      "buffer": 0,
      "byteLength": 72,
      "byteOffset": 1224
    }
  ],
  "buffers": [
    {
      "byteLength": 1296,
      "uri": "data:application/octet-stream;base64,"
    }
  ],
  "materials": [
    {
      "name": "TrunkMaterial",
      "pbrMetallicRoughness": {
        "baseColorFactor": [0.545, 0.271, 0.075, 1.0],
        "metallicFactor": 0.0,
        "roughnessFactor": 1.0
      }
    },
    {
      "name": "LeavesMaterial",
      "pbrMetallicRoughness": {
        "baseColorFactor": [0.133, 0.545, 0.133, 1.0],
        "metallicFactor": 0.0,
        "roughnessFactor": 1.0
      }
    }
  ]
}
